<?xml version="1.0" encoding="UTF-8" standalone="no"?>
<!-- Created with Inkscape (http://www.inkscape.org/) -->

<svg
   width="256.41mm"
   height="86.386131mm"
   viewBox="0 0 256.41001 86.386132"
   version="1.1"
   id="svg286146"
   xmlns="http://www.w3.org/2000/svg"
   xmlns:svg="http://www.w3.org/2000/svg">
  <defs
     id="defs286143" />
  <g
     id="layer1"
     transform="translate(37.986553,-66.646019)">
    <rect
       style="fill:none;stroke:none;stroke-width:0.263242"
       id="rect156"
       width="256.41"
       height="86.386131"
       x="-37.986553"
       y="66.646019" />
    <g
       id="g229492"
       style="fill:#808080;stroke:#808080"
       transform="translate(-96.818661,607.82823)">
      <path
         d="m 121.07624,-483.08196 c 5.12283,0 7.12971,-1.10907 8.71409,-4.64752 h 0.36969 v 4.11939 h 4.38345 v -27.56823 h -4.38345 v 14.25943 c 0,7.60503 -1.79563,9.87597 -7.76346,9.87597 -4.17221,0 -5.43971,-1.47875 -5.43971,-6.39033 v -17.74507 h -4.43627 v 17.63944 c 0,8.08034 1.95407,10.45692 8.55566,10.45692 z"
         style="font-size:52.8127px;line-height:1.25;font-family:'Berkeley Mono';-inkscape-font-specification:'Berkeley Mono, Normal';letter-spacing:-2.75066px;fill:#808080;stroke:#808080;stroke-width:1.72"
         id="path77244-7" />
      <path
         d="m 154.51599,-483.02915 c 1.84844,0 4.27782,-0.21125 7.23534,-0.58094 v -3.90814 c -2.32376,0.31687 -4.06658,0.47531 -5.49253,0.47531 -4.64751,0 -5.33408,-1.74282 -5.33408,-5.07002 v -15.15724 h 9.66473 v -3.90814 h -9.66473 v -7.92191 l -4.11939,1.74282 v 6.17909 h -6.28472 l -1.05626,3.90814 h 7.12973 v 15.36849 c 0,6.28472 1.05626,8.87254 7.92191,8.87254 z"
         style="font-size:52.8127px;line-height:1.25;font-family:'Berkeley Mono';-inkscape-font-specification:'Berkeley Mono, Normal';letter-spacing:-2.75066px;fill:#808080;stroke:#808080;stroke-width:1.72"
         id="path77246-5" />
      <path
         d="m 177.78083,-483.08196 c 9.1366,0 11.83005,-3.3272 11.83005,-14.36506 0,-11.09067 -2.69345,-14.41787 -11.83005,-14.41787 -9.08378,0 -11.77723,3.27439 -11.77723,14.41787 0,11.09067 2.69345,14.36506 11.77723,14.36506 z m -7.34096,-14.36506 c 0,-8.13315 1.69001,-10.50973 7.34096,-10.50973 5.70378,0 7.39378,2.37658 7.39378,10.50973 0,8.02753 -1.69,10.4041 -7.39378,10.4041 -5.65095,0 -7.34096,-2.37657 -7.34096,-10.4041 z"
         style="font-size:52.8127px;line-height:1.25;font-family:'Berkeley Mono';-inkscape-font-specification:'Berkeley Mono, Normal';letter-spacing:-2.75066px;fill:#808080;stroke:#808080;stroke-width:1.72"
         id="path77248-6" />
      <path
         d="m 195.73267,-483.61009 h 4.43627 v -14.36506 c 0,-7.55221 1.69001,-9.82316 7.28815,-9.82316 4.48908,0 5.91503,1.42595 5.91503,6.33753 v 17.85069 h 4.38345 v -17.74507 c 0,-8.13315 -2.0597,-10.50973 -8.92535,-10.50973 -4.80595,0 -6.70721,1.05626 -8.29159,4.70033 h -0.36969 v -4.01376 h -4.43627 z"
         style="font-size:52.8127px;line-height:1.25;font-family:'Berkeley Mono';-inkscape-font-specification:'Berkeley Mono, Normal';letter-spacing:-2.75066px;fill:#808080;stroke:#808080;stroke-width:1.72"
         id="path77250-9" />
      <path
         d="m 230.95009,-516.03709 h 6.07346 v -6.02065 h -6.07346 z m -7.23534,32.37419 h 21.81164 v -3.85533 h -8.55565 v -23.66009 h -12.72786 v 3.85533 h 8.39721 v 19.80476 h -8.92534 z"
         style="font-size:52.8127px;line-height:1.25;font-family:'Berkeley Mono';-inkscape-font-specification:'Berkeley Mono, Normal';letter-spacing:-2.75066px;fill:#808080;stroke:#808080;stroke-width:1.72"
         id="path77252-8" />
      <path
         d="m 260.51028,-483.02915 c 1.84845,0 4.27783,-0.21125 7.23534,-0.58094 v -3.90814 c -2.32375,0.31687 -4.06657,0.47531 -5.49252,0.47531 -4.64751,0 -5.33408,-1.74282 -5.33408,-5.07002 v -15.15724 h 9.66473 v -3.90814 h -9.66473 v -7.92191 l -4.11939,1.74282 v 6.17909 h -6.28471 l -1.05625,3.90814 h 7.12971 v 15.36849 c 0,6.28472 1.05625,8.87254 7.9219,8.87254 z"
         style="font-size:52.8127px;line-height:1.25;font-family:'Berkeley Mono';-inkscape-font-specification:'Berkeley Mono, Normal';letter-spacing:-2.75066px;fill:#808080;stroke:#808080;stroke-width:1.72"
         id="path77254-7" />
      <path
         d="m 278.67026,-471.93849 h 4.43626 l 13.62568,-39.23983 h -4.48908 l -7.60503,22.39258 h -0.10563 l -7.86909,-22.39258 h -4.48908 l 9.18941,25.56135 1.08112,3.00725 z"
         style="font-size:52.8127px;line-height:1.25;font-family:'Berkeley Mono';-inkscape-font-specification:'Berkeley Mono, Normal';letter-spacing:-2.75066px;fill:#808080;stroke:#808080;stroke-width:1.72"
         id="path77256-2" />
      <g
         id="g148813"
         style="fill:#808080;stroke:#808080">
        <g
           aria-label="α"
           id="text85637-8"
           style="font-size:51.1528px;line-height:1.25;-inkscape-font-specification:'sans-serif, Normal';fill:#808080;stroke:#808080;stroke-width:1.281">
          <path
             d="m 96.639879,-496.48858 -1.098985,-5.76968 q -1.123963,-5.91953 -5.569861,-5.91953 -3.346912,0 -4.870506,2.74746 -1.923226,3.44682 -1.923226,7.99263 0,5.49493 1.873272,8.11751 1.898248,2.67253 4.92046,2.67253 3.346912,0 5.145252,-5.32009 z m 2.572627,-7.64295 2.472714,-7.31824 h 4.09622 l -5.12027,15.16101 0.99908,5.46995 q 0.22479,1.22387 1.09898,2.24793 1.02406,1.19889 1.82332,1.19889 h 2.19797 v 3.8964 h -2.74746 q -2.34784,0 -4.4459,-2.09806 -1.024055,-1.04903 -1.448663,-3.247 -1.14894,2.77244 -3.496774,4.94543 -1.098986,1.02406 -4.67069,1.02406 -5.869584,0 -8.716957,-3.7965 -2.922304,-3.92138 -2.922304,-10.79004 0,-7.34323 3.172073,-10.79005 3.521751,-3.84645 8.467188,-3.84645 7.767832,0 9.241473,7.94267 z"
             id="path146787"
             style="fill:#808080;stroke:#808080;stroke-width:1.281;stroke-miterlimit:4;stroke-dasharray:none" />
        </g>
        <path
           id="rect144441-9"
           style="fill:#808080;stroke:#808080;stroke-width:1.281;stroke-miterlimit:4;stroke-dasharray:none;stroke-opacity:1"
           d="m 74.921148,-499.71161 31.859372,2e-5 v 4.37657 H 73.751958 Z" />
      </g>
    </g>
  </g>
</svg>
