<svg width="650" height="133" viewBox="0 0 650 133" fill="none" xmlns="http://www.w3.org/2000/svg">
<path d="M134.258 101.763C128.556 101.763 124.145 101.005 121.027 99.4879C117.997 97.882 115.814 95.2055 114.478 91.4584C113.23 87.6221 112.606 82.2244 112.606 75.2655V30.568H123.833V75.5332C123.833 79.7264 124.234 82.9828 125.036 85.3024C125.927 87.622 127.353 89.2726 129.313 90.2539C131.273 91.2353 134.035 91.726 137.599 91.726C142.767 91.726 146.732 90.9677 149.495 89.451C152.257 87.9343 154.217 85.3916 155.375 81.823C156.623 78.2543 157.246 73.2135 157.246 66.7007V30.568H168.34V100.425H157.246V89.9863H156.311C154.261 94.4471 151.678 97.5251 148.559 99.2202C145.44 100.915 140.673 101.763 134.258 101.763Z" fill="#111111"/>
<path d="M229.233 101.897C223.53 101.897 219.254 101.138 216.402 99.6217C213.551 98.105 211.635 95.7854 210.655 92.6628C209.675 89.5402 209.185 85.124 209.185 79.4141V40.471H191.142L193.815 30.568H209.72V14.9104L220.145 10.4942V30.568H244.603V40.471H220.145V78.8788C220.145 82.0014 220.456 84.4549 221.08 86.2392C221.793 88.0235 223.085 89.4064 224.956 90.3878C226.916 91.2799 229.812 91.726 233.643 91.726C237.029 91.726 241.663 91.3245 247.543 90.5216V100.425C239.702 101.406 233.599 101.897 229.233 101.897Z" fill="#111111"/>
<path d="M300.952 101.763C293.111 101.763 287.052 100.692 282.775 98.5511C278.588 96.3207 275.603 92.6182 273.821 87.4436C272.039 82.2691 271.148 74.9087 271.148 65.3625C271.148 55.7271 272.039 48.3221 273.821 43.1475C275.603 37.973 278.588 34.3151 282.775 32.1739C287.052 29.9434 293.111 28.8282 300.952 28.8282C308.793 28.8282 314.852 29.9434 319.129 32.1739C323.406 34.3151 326.435 38.0176 328.217 43.2813C329.999 48.4559 330.89 55.8163 330.89 65.3625C330.89 74.9087 329.999 82.2691 328.217 87.4436C326.435 92.6182 323.406 96.3207 319.129 98.5511C314.852 100.692 308.793 101.763 300.952 101.763ZM282.374 65.3625C282.374 72.3214 282.909 77.6744 283.978 81.4215C285.137 85.1686 287.008 87.8451 289.592 89.451C292.265 90.9677 296.051 91.726 300.952 91.726C305.853 91.726 309.639 90.9677 312.313 89.451C314.986 87.8451 316.857 85.1686 317.926 81.4215C319.084 77.6744 319.663 72.3214 319.663 65.3625C319.663 58.3144 319.084 52.9168 317.926 49.1697C316.857 45.4225 314.986 42.746 312.313 41.1401C309.639 39.5342 305.853 38.7313 300.952 38.7313C296.051 38.7313 292.265 39.5342 289.592 41.1401C287.008 42.746 285.137 45.4225 283.978 49.1697C282.909 52.9168 282.374 58.3144 282.374 65.3625Z" fill="#111111"/>
<path d="M353.292 30.568H364.518V40.7387H365.454C367.414 36.0994 369.865 32.9768 372.805 31.3709C375.834 29.6758 380.379 28.8282 386.437 28.8282C392.318 28.8282 396.862 29.6312 400.07 31.2371C403.278 32.843 405.55 35.5641 406.886 39.4004C408.312 43.1475 409.025 48.5005 409.025 55.4594V100.425H397.932V55.1918C397.932 50.9986 397.442 47.7422 396.461 45.4225C395.57 43.1029 394.056 41.497 391.917 40.6048C389.868 39.6235 386.883 39.1328 382.963 39.1328C378.151 39.1328 374.409 39.8911 371.736 41.4078C369.152 42.9245 367.281 45.4672 366.122 49.0358C365.053 52.5153 364.518 57.5114 364.518 64.0242V100.425H353.292V30.568Z" fill="#111111"/>
<path d="M454.682 3H470.052V18.2561H454.682V3ZM436.371 90.5216H458.959V40.3372H437.708V30.568H469.918V90.5216H491.57V100.291H436.371V90.5216Z" fill="#111111"/>
<path d="M542.093 101.897C536.391 101.897 532.114 101.138 529.263 99.6217C526.411 98.105 524.496 95.7854 523.515 92.6628C522.535 89.5402 522.045 85.124 522.045 79.4141V40.471H504.002L506.675 30.568H522.58V14.9104L533.005 10.4942V30.568H557.463V40.471H533.005V78.8788C533.005 82.0014 533.317 84.4549 533.94 86.2392C534.653 88.0235 535.945 89.4064 537.816 90.3878C539.777 91.2799 542.672 91.726 546.504 91.726C549.89 91.726 554.523 91.3245 560.404 90.5216V100.425C552.563 101.406 546.459 101.897 542.093 101.897Z" fill="#111111"/>
<path d="M607.798 100.425L582.27 30.568H593.497L613.545 86.7745H613.812L634.261 30.568H645.622L608.065 130H596.571L607.798 100.425Z" fill="#111111"/>
<path fill-rule="evenodd" clip-rule="evenodd" d="M119.668 102.163L119.621 102.138C115.825 100.126 113.197 96.7984 111.652 92.4662L111.638 92.4263L111.625 92.386C110.234 88.1094 109.606 82.3461 109.606 75.2655V27.568H126.833V75.5332C126.833 79.5591 127.222 82.4146 127.855 84.2739C128.515 85.9666 129.466 86.9757 130.656 87.5714C132.017 88.2528 134.243 88.726 137.599 88.726C142.55 88.726 145.928 87.9867 148.051 86.8214C150.019 85.7406 151.552 83.8861 152.522 80.8968L152.532 80.8648L152.543 80.8331C153.627 77.7321 154.246 73.0833 154.246 66.7007V27.568H171.34V103.425H154.246V98.561C152.969 99.8983 151.555 101.006 149.992 101.856C146.207 103.913 140.83 104.763 134.258 104.763C128.359 104.763 123.423 103.99 119.714 102.186L119.668 102.163ZM154.246 93.7429C154.986 92.6241 155.674 91.3719 156.311 89.9863H157.246V100.425H168.34V30.568H157.246V66.7007C157.246 73.2135 156.623 78.2543 155.375 81.823C154.217 85.3916 152.257 87.9343 149.495 89.451C146.732 90.9677 142.767 91.726 137.599 91.726C134.035 91.726 131.273 91.2353 129.313 90.2539C127.353 89.2726 125.927 87.622 125.036 85.3024C124.234 82.9828 123.833 79.7264 123.833 75.5332V30.568H112.606V75.2655C112.606 82.2244 113.23 87.6221 114.478 91.4584C115.814 95.2055 117.997 97.882 121.027 99.4879C124.145 101.005 128.556 101.763 134.258 101.763C140.673 101.763 145.44 100.915 148.559 99.2202C150.709 98.0516 152.605 96.2259 154.246 93.7429ZM247.543 100.425C239.702 101.406 233.599 101.897 229.233 101.897C223.53 101.897 219.254 101.138 216.402 99.6217C213.551 98.105 211.635 95.7854 210.655 92.6628C209.675 89.5402 209.185 85.124 209.185 79.4141V40.471H191.142L193.815 30.568H209.72V14.9104L220.145 10.4942V30.568H244.603V40.471H220.145V78.8788C220.145 82.0014 220.456 84.4549 221.08 86.2392C221.793 88.0235 223.085 89.4064 224.956 90.3878C226.916 91.2799 229.812 91.726 233.643 91.726C236.431 91.726 240.064 91.4539 244.543 90.9096C245.504 90.7928 246.504 90.6634 247.543 90.5216V100.425ZM226.274 87.6908C227.66 88.2991 230.024 88.726 233.643 88.726C236.829 88.726 241.307 88.3452 247.137 87.5492L250.543 87.0841V103.073L247.916 103.401C240.033 104.388 233.785 104.897 229.233 104.897C223.362 104.897 218.494 104.133 214.993 102.27C211.436 100.378 209.005 97.4241 207.793 93.5612C206.678 90.0092 206.185 85.2378 206.185 79.4141V43.471H187.225L191.517 27.568H206.72V12.9232L223.145 5.96525V27.568H247.603V43.471H223.145V78.8788C223.145 81.8067 223.439 83.8568 223.89 85.1851C224.307 86.1908 225.039 87.0254 226.274 87.6908ZM281.398 101.217L281.365 101.199C276.405 98.5573 272.973 94.1944 270.984 88.4205C269.042 82.7813 268.148 75.0323 268.148 65.3625C268.148 55.6072 269.041 47.8119 270.984 42.1707C272.973 36.3956 276.413 32.0613 281.398 29.5085C286.29 26.9607 292.902 25.8282 300.952 25.8282C308.996 25.8282 315.604 26.9589 320.494 29.5026C325.578 32.0554 329.068 36.4427 331.056 42.3117C332.997 47.9503 333.89 55.6968 333.89 65.3625C333.89 75.0322 332.996 82.7813 331.054 88.4205C329.058 94.2154 325.566 98.5773 320.516 101.211L320.494 101.223L320.472 101.234C315.593 103.676 308.996 104.763 300.952 104.763C292.908 104.763 286.311 103.676 281.432 101.234L281.398 101.217ZM319.129 32.1739C314.852 29.9434 308.793 28.8282 300.952 28.8282C293.111 28.8282 287.052 29.9434 282.775 32.1739C278.588 34.3151 275.603 37.973 273.821 43.1475C272.039 48.3221 271.148 55.7271 271.148 65.3625C271.148 74.9087 272.039 82.2691 273.821 87.4436C275.603 92.6182 278.588 96.3207 282.775 98.5511C287.052 100.692 293.111 101.763 300.952 101.763C308.793 101.763 314.852 100.692 319.129 98.5511C323.406 96.3207 326.435 92.6182 328.217 87.4436C329.999 82.2691 330.89 74.9087 330.89 65.3625C330.89 55.8163 329.999 48.4559 328.217 43.2813C326.435 38.0176 323.406 34.3151 319.129 32.1739ZM315.05 80.5668L315.06 80.5355C316.086 77.2154 316.663 72.2151 316.663 65.3625C316.663 58.416 316.085 53.3733 315.06 50.0557L315.05 50.0243L315.041 49.9928C314.126 46.7864 312.636 44.8343 310.768 43.7117C308.756 42.503 305.592 41.7313 300.952 41.7313C296.327 41.7313 293.169 42.4981 291.156 43.7001C289.36 44.8235 287.859 46.7935 286.854 50.0247C285.905 53.3706 285.374 58.4289 285.374 65.3625C285.374 72.2029 285.904 77.2185 286.854 80.5664C287.853 83.7788 289.343 85.7447 291.125 86.8714C293.156 88.0057 296.332 88.726 300.952 88.726C305.587 88.726 308.769 88.001 310.799 86.8602C312.653 85.7346 314.131 83.7865 315.041 80.5983L315.05 80.5668ZM312.313 89.451C309.639 90.9677 305.853 91.726 300.952 91.726C296.051 91.726 292.265 90.9677 289.592 89.451C287.008 87.8451 285.137 85.1686 283.978 81.4215C282.909 77.6744 282.374 72.3214 282.374 65.3625C282.374 58.3144 282.909 52.9168 283.978 49.1697C285.137 45.4225 287.008 42.746 289.592 41.1401C292.265 39.5342 296.051 38.7313 300.952 38.7313C305.853 38.7313 309.639 39.5342 312.313 41.1401C314.986 42.746 316.857 45.4225 317.926 49.1697C319.084 52.9168 319.663 58.3144 319.663 65.3625C319.663 72.3214 319.084 77.6744 317.926 81.4215C316.857 85.1686 314.986 87.8451 312.313 89.451ZM350.292 27.568H367.518V31.7615C368.671 30.5322 369.946 29.5164 371.353 28.7454C375.05 26.682 380.205 25.8282 386.437 25.8282C392.521 25.8282 397.604 26.6474 401.413 28.5545C405.402 30.5514 408.146 33.9254 409.705 38.3737C411.312 42.6202 412.025 48.386 412.025 55.4594V103.425H394.932V55.1918C394.932 51.1679 394.452 48.3742 393.698 46.5902L393.679 46.5445L393.661 46.4983C393.04 44.8823 392.085 43.9254 390.762 43.3735L390.691 43.3439L390.621 43.3106C389.17 42.6156 386.715 42.1328 382.963 42.1328C378.418 42.1328 375.272 42.8573 373.236 44.0058C371.446 45.0629 369.971 46.9099 368.983 49.9386C368.049 52.9918 367.518 57.6292 367.518 64.0242V103.425H350.292V27.568ZM366.122 49.0358C367.281 45.4672 369.152 42.9245 371.736 41.4078C374.409 39.8911 378.151 39.1328 382.963 39.1328C386.883 39.1328 389.868 39.6235 391.917 40.6048C394.056 41.497 395.57 43.1029 396.461 45.4225C397.442 47.7422 397.932 50.9986 397.932 55.1918V100.425H409.025V55.4594C409.025 48.5005 408.312 43.1475 406.886 39.4004C405.55 35.5641 403.278 32.843 400.07 31.2371C396.862 29.6312 392.318 28.8282 386.437 28.8282C380.379 28.8282 375.834 29.6758 372.805 31.3709C370.819 32.4554 369.057 34.2315 367.518 36.6993C366.779 37.8859 366.091 39.2323 365.454 40.7387H364.518V30.568H353.292V100.425H364.518V64.0242C364.518 57.5114 365.053 52.5153 366.122 49.0358ZM451.682 0H473.052V21.2561H451.682V0ZM433.371 87.5216H455.959V43.3372H434.708V27.568H472.918V87.5216H494.57V103.291H433.371V87.5216ZM469.918 90.5216V30.568H437.708V40.3372H458.959V90.5216H436.371V100.291H491.57V90.5216H469.918ZM560.404 100.425C552.563 101.406 546.459 101.897 542.093 101.897C536.391 101.897 532.114 101.138 529.263 99.6217C526.411 98.105 524.496 95.7854 523.515 92.6628C522.535 89.5402 522.045 85.124 522.045 79.4141V40.471H504.002L506.675 30.568H522.58V14.9104L533.005 10.4942V30.568H557.463V40.471H533.005V78.8788C533.005 82.0014 533.317 84.4549 533.94 86.2392C534.653 88.0235 535.945 89.4064 537.816 90.3878C539.777 91.2799 542.672 91.726 546.504 91.726C549.291 91.726 552.925 91.4539 557.404 90.9096C558.365 90.7928 559.365 90.6634 560.404 90.5216V100.425ZM539.134 87.6908C540.521 88.2991 542.884 88.726 546.504 88.726C549.689 88.726 554.168 88.3452 559.998 87.5492L563.404 87.0841V103.073L560.776 103.401C552.893 104.388 546.645 104.897 542.093 104.897C536.223 104.897 531.355 104.133 527.854 102.27C524.297 100.378 521.866 97.4241 520.653 93.5612C519.538 90.0092 519.045 85.2378 519.045 79.4141V43.471H500.085L504.378 27.568H519.58V12.9232L536.005 5.96525V27.568H560.463V43.471H536.005V78.8788C536.005 81.8067 536.299 83.8568 536.75 85.1851C537.167 86.1907 537.899 87.0254 539.134 87.6908ZM607.798 100.425L582.27 30.568H593.497L613.545 86.7745H613.812L634.261 30.568H645.622L608.065 130H596.571L607.798 100.425ZM613.705 78.294L632.16 27.568H649.962L610.139 133H592.223L604.597 100.405L577.98 27.568H595.612L613.705 78.294ZM454.682 3V18.2561H470.052V3H454.682Z" fill="black"/>
<path d="M36.7408 104.985C27.421 104.985 20.3023 102.078 15.3848 96.2656C10.4673 90.4529 7.75093 81.7572 7.23576 70.1786H0V58.225H7.44651C9.41352 36.8022 19.7871 26.0908 38.5673 26.0908C44.7025 26.0908 49.9713 27.6612 54.3736 30.802C58.8228 33.8958 62.1714 38.3023 64.4194 44.0213H64.6301C65.8009 38.2085 67.5572 32.7005 69.8989 27.4971H88.5152C87.2506 29.841 85.9393 32.677 84.5811 36.0053C83.223 39.2867 81.9351 42.8259 80.7174 46.6229C79.5466 50.42 78.5162 54.2873 77.6264 58.225H87.0399V70.1786H77.2751C78.165 76.3664 79.3358 82.2494 80.7876 87.8278C82.2863 93.3593 84.0894 98.6095 86.1969 103.578H67.2294C66.1522 100.953 65.1921 98.2579 64.3491 95.4922C63.5061 92.6796 62.8036 89.8201 62.2416 86.9137H61.9606C59.0569 93.2421 55.5913 97.836 51.5636 100.696C47.5359 103.555 42.595 104.985 36.7408 104.985ZM41.1666 39.732C37.1389 39.732 34.0947 41.2086 32.0341 44.1619C30.0202 47.0683 28.7323 51.756 28.1703 58.225H55.9191C54.6546 52.4122 52.7578 47.8886 50.2288 44.6541C47.7467 41.3727 44.7259 39.732 41.1666 39.732ZM40.6046 91.4139C44.2576 91.4139 47.4891 89.5388 50.2991 85.7886C53.1559 81.9916 55.1932 76.7883 56.4108 70.1786H27.9595C28.2405 77.632 29.3646 83.0463 31.3316 86.4215C33.3454 89.7497 36.4364 91.4139 40.6046 91.4139Z" fill="#111111"/>
</svg>
